<svg width="32" height="32" viewBox="0 0 32 32" fill="none" xmlns="http://www.w3.org/2000/svg">
<path d="M24.1868 28.8267C23.0135 29.1733 21.6268 29.3334 20.0001 29.3334H12.0001C10.3735 29.3334 8.98681 29.1733 7.81348 28.8267C8.10681 25.36 11.6668 22.6266 16.0001 22.6266C20.3335 22.6266 23.8935 25.36 24.1868 28.8267Z" stroke="white" stroke-width="1.5" stroke-linecap="round" stroke-linejoin="round"/>
<path d="M20.0003 2.66669H12.0003C5.33366 2.66669 2.66699 5.33335 2.66699 12V20C2.66699 25.04 4.18699 27.8 7.81366 28.8267C8.10699 25.36 11.667 22.6266 16.0003 22.6266C20.3337 22.6266 23.8937 25.36 24.187 28.8267C27.8137 27.8 29.3337 25.04 29.3337 20V12C29.3337 5.33335 26.667 2.66669 20.0003 2.66669ZM16.0003 18.8933C13.3603 18.8933 11.227 16.7467 11.227 14.1067C11.227 11.4667 13.3603 9.33335 16.0003 9.33335C18.6403 9.33335 20.7737 11.4667 20.7737 14.1067C20.7737 16.7467 18.6403 18.8933 16.0003 18.8933Z" stroke="white" stroke-width="1.5" stroke-linecap="round" stroke-linejoin="round"/>
<path d="M20.7732 14.1067C20.7732 16.7467 18.6399 18.8933 15.9999 18.8933C13.3599 18.8933 11.2266 16.7467 11.2266 14.1067C11.2266 11.4667 13.3599 9.33331 15.9999 9.33331C18.6399 9.33331 20.7732 11.4667 20.7732 14.1067Z" stroke="white" stroke-width="1.5" stroke-linecap="round" stroke-linejoin="round"/>
</svg>
