<svg width="12" height="16" viewBox="0 0 12 16" fill="none" xmlns="http://www.w3.org/2000/svg">
<path d="M6 0C2.68286 0 0 2.57216 0 5.75244C0 9.17925 3.78857 13.9045 5.34857 15.7042C5.69143 16.0986 6.31714 16.0986 6.66 15.7042C8.21143 13.9045 12 9.17925 12 5.75244C12 2.57216 9.31714 0 6 0ZM6 7.80688C4.81714 7.80688 3.85714 6.88649 3.85714 5.75244C3.85714 4.61839 4.81714 3.698 6 3.698C7.18286 3.698 8.14286 4.61839 8.14286 5.75244C8.14286 6.88649 7.18286 7.80688 6 7.80688Z" fill="#41413F"/>
</svg>
