<svg width="28" height="23" viewBox="0 0 28 23" fill="none" xmlns="http://www.w3.org/2000/svg">
<path d="M27.947 2.99992C26.9204 3.46659 25.8137 3.77325 24.667 3.91992C25.8404 3.21325 26.747 2.09325 27.1737 0.746585C26.067 1.41325 24.8404 1.87992 23.547 2.14659C22.4937 0.999919 21.0137 0.333252 19.3337 0.333252C16.2004 0.333252 13.6404 2.89325 13.6404 6.05325C13.6404 6.50658 13.6937 6.94659 13.787 7.35992C9.04038 7.11992 4.81371 4.83992 2.00038 1.38659C1.50704 2.22659 1.22704 3.21325 1.22704 4.25325C1.22704 6.23992 2.22704 7.99992 3.77371 8.99992C2.82704 8.99992 1.94704 8.73325 1.17371 8.33325V8.37325C1.17371 11.1466 3.14704 13.4666 5.76038 13.9866C4.92135 14.2162 4.0405 14.2481 3.18704 14.0799C3.54919 15.2166 4.25843 16.2111 5.21507 16.9238C6.17171 17.6365 7.32764 18.0315 8.52038 18.0533C6.49855 19.6538 3.99237 20.519 1.41371 20.5066C0.960378 20.5066 0.507044 20.4799 0.0537109 20.4266C2.58704 22.0532 5.60038 22.9999 8.82704 22.9999C19.3337 22.9999 25.107 14.2799 25.107 6.71992C25.107 6.46658 25.107 6.22658 25.0937 5.97325C26.2137 5.17325 27.1737 4.15992 27.947 2.99992Z" fill="#C4DCFA"/>
</svg>
